<?xml version="1.0" encoding="utf-8"?>
<!-- Generator: Adobe Illustrator 26.4.1, SVG Export Plug-In . SVG Version: 6.00 Build 0)  -->
<svg version="1.1" id="Layer_1" xmlns="http://www.w3.org/2000/svg" xmlns:xlink="http://www.w3.org/1999/xlink" x="0px" y="0px"
	 viewBox="0 0 24 24" style="enable-background:new 0 0 24 24;" xml:space="preserve">
<style type="text/css">
	.st0{fill:#1D9BF0;}
</style>
<g>
	<path class="st0" d="M-37.9,18c-0.1-0.1-0.1-0.1-0.1-0.2C-37.9,17.8-37.9,17.9-37.9,18z"/>
	<path class="st0" d="M-37.9,18c-0.1-0.1-0.1-0.1-0.1-0.2C-37.9,17.8-37.9,17.9-37.9,18z M18,2.2h-1.3V1.9c0-0.4-0.3-0.8-0.8-0.8
		c-0.4,0-0.8,0.3-0.8,0.8v0.3H7.7V1.9c0-0.4-0.3-0.8-0.8-0.8c-0.4,0-0.8,0.3-0.8,0.8v0.3H4.8c-1.4,0-2.5,1.1-2.5,2.5v13.1
		c0,1.4,1.1,2.5,2.5,2.5h2.9c0.4,0,0.8-0.3,0.8-0.8c0-0.4-0.3-0.8-0.8-0.8H4.8c-0.6,0-1-0.5-1-1V7.9c0-0.3,0.4-0.7,1-0.7H18
		c0.6,0,1,0.4,1,0.7v1.8c0,0.4,0.3,0.8,0.8,0.8c0.4,0,0.8-0.3,0.8-0.8v-5C20.5,3.3,19.4,2.2,18,2.2z M19,5.9c-0.3-0.1-0.7-0.2-1-0.2
		H4.8c-0.4,0-0.7,0.1-1,0.2V4.7c0-0.6,0.5-1,1-1h1.3v0.5C6.1,4.6,6.4,5,6.9,5c0.4,0,0.8-0.3,0.8-0.8V3.7h7.5v0.5
		C15.2,4.6,15.5,5,16,5c0.4,0,0.8-0.3,0.8-0.8V3.7H18c0.6,0,1,0.5,1,1C19,4.7,19,5.9,19,5.9z"/>
	<path class="st0" d="M15.5,10.4c-3.4,0-6.2,2.8-6.2,6.2s2.8,6.2,6.2,6.2s6.2-2.8,6.2-6.2S18.9,10.4,15.5,10.4z M15.5,21.4
		c-2.6,0-4.7-2.1-4.7-4.7s2.1-4.7,4.7-4.7s4.7,2.1,4.7,4.7C20.2,19.2,18.1,21.4,15.5,21.4z"/>
	<path class="st0" d="M18.9,18.7c-0.1,0.2-0.4,0.4-0.6,0.4c-0.1,0-0.3,0-0.4-0.1l-3.1-2v-3c0-0.4,0.3-0.8,0.8-0.8
		c0.4,0,0.8,0.3,0.8,0.8v2.2l2.4,1.5C19,17.9,19.1,18.3,18.9,18.7z"/>
</g>
</svg>
