<?xml version="1.0" encoding="utf-8"?>
<!-- Generator: Adobe Illustrator 26.4.1, SVG Export Plug-In . SVG Version: 6.00 Build 0)  -->
<svg version="1.1" id="Layer_1" xmlns="http://www.w3.org/2000/svg" xmlns:xlink="http://www.w3.org/1999/xlink" x="0px" y="0px"
	 viewBox="0 0 24 24" style="enable-background:new 0 0 24 24;" xml:space="preserve">
<style type="text/css">
	.st0{fill:#536471;}
</style>
<g>
	<path class="st0" d="M14,2.2l-4.1,0h0c-4.4,0-7.8,3.4-7.8,7.8c0,4.1,3.2,7.2,7.5,7.4v3.8c0,0.1,0,0.3,0.1,0.4
		c0.1,0.2,0.4,0.3,0.6,0.3c0.1,0,0.3,0,0.4-0.1c0.3-0.2,6.5-4.1,8.1-5.5c1.9-1.6,3-4,3-6.3v0C21.8,5.7,18.4,2.2,14,2.2L14,2.2z
		 M17.8,15.2c-1.1,1-4.9,3.4-6.8,4.6v-3.2c0-0.4-0.3-0.8-0.8-0.8H9.9c-3.7,0-6.3-2.5-6.3-5.9c0-3.5,2.8-6.3,6.3-6.3l4.1,0h0
		c3.5,0,6.3,2.8,6.3,6.3C20.3,11.9,19.4,13.9,17.8,15.2L17.8,15.2z"/>
</g>
</svg>
