<?xml version="1.0" encoding="utf-8"?>
<!-- Generator: Adobe Illustrator 26.4.1, SVG Export Plug-In . SVG Version: 6.00 Build 0)  -->
<svg version="1.1" id="Layer_1" xmlns="http://www.w3.org/2000/svg" xmlns:xlink="http://www.w3.org/1999/xlink" x="0px" y="0px"
	 viewBox="0 0 24 24" style="enable-background:new 0 0 24 24;" xml:space="preserve">
<style type="text/css">
	.st0{fill:#1D9BEA;}
</style>
<g>
	<path class="st0" d="M19,10.5V8.8h-4.4v6.4h1.7v-2h2v-1.7h-2v-1C16.3,10.5,19,10.5,19,10.5z M11.7,8.8h1.7v6.4h-1.7V8.8z M8.1,10.4
		c0.4,0,0.9,0.2,1.2,0.5l1.2-1C9.9,9.2,9,8.8,8.1,8.8c-1.8,0-3.2,1.4-3.2,3.2s1.4,3.2,3.2,3.2c1,0,1.8-0.4,2.4-1.1v-2.5H7.7v1.2h1.2
		v0.6c-0.2,0.1-0.5,0.2-0.8,0.2c-0.9,0-1.6-0.7-1.6-1.6C6.5,11.2,7.2,10.4,8.1,10.4z"/>
	<path class="st0" d="M20.5,2h-17C2.3,2,1.2,3,1.2,4.3v15.5c0,1.2,1,2.2,2.2,2.2h17c1.2,0,2.2-1,2.2-2.2V4.3C22.8,3,21.7,2,20.5,2z
		 M21.2,19.8c0,0.4-0.3,0.7-0.8,0.7h-17c-0.4,0-0.8-0.3-0.8-0.7V4.3c0-0.4,0.3-0.7,0.8-0.7h17c0.4,0,0.8,0.3,0.8,0.7V19.8z"/>
</g>
</svg>
