<?xml version="1.0" encoding="utf-8"?>
<!-- Generator: Adobe Illustrator 26.4.1, SVG Export Plug-In . SVG Version: 6.00 Build 0)  -->
<svg version="1.1" id="Layer_1" xmlns="http://www.w3.org/2000/svg" xmlns:xlink="http://www.w3.org/1999/xlink" x="0px" y="0px"
	 viewBox="0 0 24 24" style="enable-background:new 0 0 24 24;" xml:space="preserve">
<style type="text/css">
	.st0{fill:#1D9BEA;}
</style>
<g>
	<path class="st0" d="M19.8,2H4.2C3,2,2,3,2,4.2v15.5C2,21,3,22,4.2,22h15.5c1.2,0,2.2-1,2.2-2.2V4.2C22,3,21,2,19.8,2z M4.2,3.5
		h15.5c0.4,0,0.8,0.3,0.8,0.8v9.7l-3.9-3.9c-0.1-0.1-0.3-0.2-0.5-0.2h0c-0.2,0-0.4,0.1-0.5,0.2l-4.3,4.4l-1.8-1.8
		c-0.1-0.1-0.3-0.2-0.5-0.2c-0.2,0-0.4,0.1-0.5,0.2l-4.9,5V4.2C3.5,3.8,3.8,3.5,4.2,3.5z M3.5,19.8l5.4-5.5l6.3,6.3h-11
		C3.8,20.5,3.5,20.2,3.5,19.8z M19.8,20.5h-2.4l-5-5l3.8-3.9l4.4,4.4v3.7C20.5,20.2,20.2,20.5,19.8,20.5z"/>
	<circle class="st0" cx="8.9" cy="8.3" r="1.5"/>
</g>
</svg>
