<?xml version="1.0" encoding="utf-8"?>
<!-- Generator: Adobe Illustrator 26.4.1, SVG Export Plug-In . SVG Version: 6.00 Build 0)  -->
<svg version="1.1" id="Layer_1" xmlns="http://www.w3.org/2000/svg" xmlns:xlink="http://www.w3.org/1999/xlink" x="0px" y="0px"
	 viewBox="0 0 24 24" style="enable-background:new 0 0 24 24;" xml:space="preserve">
<style type="text/css">
	.st0{fill:#1D9BF0;}
</style>
<g>
	<path class="st0" d="M12,14.3c-2.1,0-3.8-1.7-3.8-3.8S9.9,6.7,12,6.7s3.8,1.7,3.8,3.8S14.1,14.3,12,14.3L12,14.3z M12,8.2
		c-1.3,0-2.3,1-2.3,2.3s1,2.3,2.3,2.3s2.3-1,2.3-2.3S13.3,8.2,12,8.2L12,8.2z"/>
	<path class="st0" d="M20.7,10.7C20.7,5.9,16.8,2,12,2s-8.7,3.9-8.7,8.7c0,1.9,0.6,3.7,1.7,5.2l0,0l0,0c1.6,2.1,6.3,5.8,6.5,5.9
		c0.1,0.1,0.3,0.2,0.5,0.2s0.3-0.1,0.5-0.2c0.2-0.2,4.8-3.8,6.5-5.9l0,0l0,0C20.1,14.4,20.7,12.6,20.7,10.7L20.7,10.7z M12,20.3
		c-1.2-1-4.5-3.7-5.8-5.3c-0.9-1.2-1.4-2.7-1.4-4.3c0-4,3.2-7.2,7.2-7.2s7.2,3.2,7.2,7.2c0,1.6-0.5,3.1-1.4,4.3
		C16.5,16.6,13.2,19.3,12,20.3L12,20.3z"/>
</g>
</svg>
