<?xml version="1.0" encoding="utf-8"?>
<!-- Generator: Adobe Illustrator 26.4.1, SVG Export Plug-In . SVG Version: 6.00 Build 0)  -->
<svg version="1.1" id="Layer_1" xmlns="http://www.w3.org/2000/svg" xmlns:xlink="http://www.w3.org/1999/xlink" x="0px" y="0px"
	 viewBox="0 0 24 24" style="enable-background:new 0 0 24 24;" xml:space="preserve">
<style type="text/css">
	.st0{fill:#536471;}
</style>
<g>
	<path class="st0" d="M23.8,15.7c-0.3-0.3-0.8-0.3-1.1,0l-2.2,2.2V7.7c0-2.1-1.7-3.8-3.8-3.8h-5.9c-0.4,0-0.8,0.3-0.8,0.8
		s0.3,0.8,0.8,0.8h5.9c1.2,0,2.2,1,2.2,2.2v10.2l-2.2-2.2c-0.3-0.3-0.8-0.3-1.1,0s-0.3,0.8,0,1.1l3.5,3.5c0.1,0.1,0.3,0.2,0.5,0.2
		s0.4-0.1,0.5-0.2l3.5-3.5C24.1,16.4,24.1,16,23.8,15.7z M13.1,19H7.3C6,19,5,17.9,5,16.7V6.5l2.2,2.2c0.1,0.1,0.3,0.2,0.5,0.2
		s0.4-0.1,0.5-0.2c0.3-0.3,0.3-0.8,0-1.1L4.8,4.1C4.5,3.8,4,3.8,3.7,4.1L0.2,7.6c-0.3,0.3-0.3,0.8,0,1.1S1,9,1.3,8.7l2.2-2.2v10.2
		c0,2.1,1.7,3.8,3.8,3.8h5.9c0.4,0,0.8-0.3,0.8-0.8S13.5,19,13.1,19L13.1,19z"/>
</g>
</svg>
