<?xml version="1.0" encoding="utf-8"?>
<!-- Generator: Adobe Illustrator 26.4.1, SVG Export Plug-In . SVG Version: 6.00 Build 0)  -->
<svg version="1.1" id="Layer_1" xmlns="http://www.w3.org/2000/svg" xmlns:xlink="http://www.w3.org/1999/xlink" x="0px" y="0px"
	 viewBox="0 0 24 24" style="enable-background:new 0 0 24 24;" xml:space="preserve">
<g>
	<path d="M21.5,20.5l-3.7-3.7c1.3-1.6,2.1-3.6,2.1-5.8c0-5-4-9-9-9s-9,4-9,9s4,9,9,9c2.2,0,4.2-0.8,5.8-2.1l3.7,3.7
		c0.1,0.1,0.3,0.2,0.5,0.2s0.4-0.1,0.5-0.2C21.8,21.2,21.8,20.8,21.5,20.5z M3.5,11c0-4.1,3.4-7.5,7.5-7.5s7.5,3.4,7.5,7.5
		s-3.4,7.5-7.5,7.5S3.5,15.1,3.5,11z"/>
</g>
</svg>
