<?xml version="1.0" encoding="utf-8"?>
<!-- Generator: Adobe Illustrator 26.4.1, SVG Export Plug-In . SVG Version: 6.00 Build 0)  -->
<svg version="1.1" id="Layer_1" xmlns="http://www.w3.org/2000/svg" xmlns:xlink="http://www.w3.org/1999/xlink" x="0px" y="0px"
	 viewBox="0 0 24 24" style="enable-background:new 0 0 24 24;" xml:space="preserve">
<style type="text/css">
	.st0{fill:#536471;}
</style>
<g>
	<path class="st0" d="M17.5,7.5l-5-5c-0.3-0.3-0.8-0.3-1.1,0l-5,5c-0.3,0.3-0.3,0.8,0,1.1s0.8,0.3,1.1,0l3.7-3.7V15
		c0,0.4,0.3,0.8,0.8,0.8s0.8-0.3,0.8-0.8V4.8l3.7,3.7c0.1,0.1,0.3,0.2,0.5,0.2s0.4-0.1,0.5-0.2C17.8,8.2,17.8,7.8,17.5,7.5z"/>
	<path class="st0" d="M19.7,21.9H4.3c-1.3,0-2.3-1-2.3-2.3V14c0-0.4,0.3-0.8,0.8-0.8s0.8,0.3,0.8,0.8v5.7c0,0.4,0.4,0.8,0.8,0.8
		h15.4c0.4,0,0.8-0.4,0.8-0.8V14c0-0.4,0.3-0.8,0.8-0.8S22,13.6,22,14v5.7C22,20.9,21,21.9,19.7,21.9z"/>
</g>
</svg>
