<?xml version="1.0" encoding="utf-8"?>
<!-- Generator: Adobe Illustrator 26.4.1, SVG Export Plug-In . SVG Version: 6.00 Build 0)  -->
<svg version="1.1" id="Layer_1" xmlns="http://www.w3.org/2000/svg" xmlns:xlink="http://www.w3.org/1999/xlink" x="0px" y="0px"
	 viewBox="0 0 24 24" style="enable-background:new 0 0 24 24;" xml:space="preserve">
<style type="text/css">
	.st0{fill:#1D9BF0;}
</style>
<g>
	<path class="st0" d="M12,22.8C6.1,22.8,1.2,17.9,1.2,12S6.1,1.2,12,1.2S22.8,6.1,22.8,12S17.9,22.8,12,22.8z M12,2.8
		c-5.1,0-9.2,4.2-9.2,9.2s4.2,9.2,9.2,9.2s9.2-4.1,9.2-9.2S17.1,2.8,12,2.8z"/>
	<path class="st0" d="M12,17.1c-1.9,0-3.6-1-4.7-2.5c-0.2-0.3-0.1-0.8,0.2-1c0.3-0.2,0.8-0.1,1,0.2c0.7,1.2,2,1.9,3.4,1.9
		s2.6-0.7,3.4-1.9c0.2-0.4,0.7-0.4,1-0.2c0.4,0.2,0.5,0.7,0.2,1C15.6,16.2,13.9,17.1,12,17.1L12,17.1z"/>
	<circle class="st0" cx="14.7" cy="9.5" r="1.5"/>
	<circle class="st0" cx="9.3" cy="9.5" r="1.5"/>
</g>
</svg>
