<?xml version="1.0" encoding="utf-8"?>
<!-- Generator: Adobe Illustrator 26.4.1, SVG Export Plug-In . SVG Version: 6.00 Build 0)  -->
<svg version="1.1" id="Layer_1" xmlns="http://www.w3.org/2000/svg" xmlns:xlink="http://www.w3.org/1999/xlink" x="0px" y="0px"
	 viewBox="0 0 24 24" style="enable-background:new 0 0 24 24;" xml:space="preserve">
<style type="text/css">
	.st0{fill:#1D9BF0;}
</style>
<g>
	<path class="st0" d="M22.5,12.5c0-1.6-0.9-2.9-2.1-3.6c0.2-0.4,0.2-0.9,0.2-1.4c0-2.2-1.7-4-3.8-4c-0.5,0-0.9,0.1-1.3,0.2
		c-0.6-1.3-1.9-2.3-3.4-2.3S9.2,2.4,8.6,3.8C8.1,3.6,7.7,3.5,7.2,3.5c-2.1,0-3.8,1.8-3.8,4c0,0.5,0.1,1,0.2,1.4
		c-1.3,0.6-2.1,2-2.1,3.6c0,1.5,0.8,2.8,1.9,3.5c0,0.2,0,0.3,0,0.5c0,2.2,1.7,4,3.8,4c0.5,0,0.9-0.1,1.3-0.2
		c0.6,1.3,1.9,2.2,3.4,2.2c1.5,0,2.8-0.9,3.4-2.2c0.4,0.2,0.9,0.2,1.3,0.2c2.1,0,3.8-1.8,3.8-4c0-0.2,0-0.3,0-0.5
		C21.7,15.3,22.5,14,22.5,12.5L22.5,12.5z M15.9,9.2l-4.3,6.5c-0.1,0.2-0.4,0.3-0.6,0.3c-0.1,0-0.3,0-0.4-0.1l-0.1-0.1L8,13.4
		c-0.3-0.3-0.3-0.8,0-1.1s0.8-0.3,1.1,0l1.8,1.8l3.8-5.7c0.2-0.3,0.7-0.4,1-0.2C16,8.4,16.1,8.8,15.9,9.2L15.9,9.2z"/>
</g>
</svg>
