<?xml version="1.0" encoding="utf-8"?>
<!-- Generator: Adobe Illustrator 26.4.1, SVG Export Plug-In . SVG Version: 6.00 Build 0)  -->
<svg version="1.1" id="Layer_1" xmlns="http://www.w3.org/2000/svg" xmlns:xlink="http://www.w3.org/1999/xlink" x="0px" y="0px"
	 viewBox="0 0 24 24" style="enable-background:new 0 0 24 24;" xml:space="preserve">
<g>
	<path d="M22.8,10.5l-5.6-2.2L15,1.8c-0.1-0.3-0.4-0.5-0.7-0.5s-0.6,0.2-0.7,0.5l-2.2,6.5l-5.6,2.2c-0.3,0.1-0.5,0.4-0.5,0.7
		s0.2,0.6,0.5,0.7l5.6,2.2l2.2,6.5c0.1,0.3,0.4,0.5,0.7,0.5s0.6-0.2,0.7-0.5l2.2-6.5l5.6-2.2c0.3-0.1,0.5-0.4,0.5-0.7
		S23.1,10.6,22.8,10.5L22.8,10.5z M16.3,12.8c-0.2,0.1-0.4,0.2-0.4,0.5L14.3,18l-1.6-4.7c-0.1-0.2-0.2-0.4-0.4-0.5l-4.2-1.6l4.2-1.6
		c0.2-0.1,0.4-0.2,0.4-0.5l1.6-4.7l1.6,4.7c0.1,0.2,0.2,0.4,0.4,0.5l4.2,1.6L16.3,12.8L16.3,12.8z M6.7,3.8H4.8V2
		c0-0.4-0.3-0.8-0.8-0.8S3.3,1.6,3.3,2v1.8H1.5c-0.4,0-0.8,0.3-0.8,0.8s0.3,0.8,0.8,0.8h1.8v1.8c0,0.4,0.3,0.8,0.8,0.8
		s0.8-0.3,0.8-0.8V5.3h1.9c0.4,0,0.8-0.3,0.8-0.8S7.1,3.8,6.7,3.8L6.7,3.8z M9.2,19.4H8.1v-1c0-0.4-0.3-0.8-0.8-0.8S6.6,18,6.6,18.4
		v1h-1c-0.4,0-0.8,0.3-0.8,0.8s0.3,0.8,0.8,0.8h1v1c0,0.4,0.3,0.8,0.8,0.8s0.8-0.3,0.8-0.8v-1h1.1c0.4,0,0.8-0.3,0.8-0.8
		S9.6,19.4,9.2,19.4z"/>
</g>
</svg>
